<?xml version="1.0" encoding="UTF-8" standalone="no"?>
<svg
   xmlns:dc="http://purl.org/dc/elements/1.1/"
   xmlns:cc="http://creativecommons.org/ns#"
   xmlns:rdf="http://www.w3.org/1999/02/22-rdf-syntax-ns#"
   xmlns:svg="http://www.w3.org/2000/svg"
   xmlns="http://www.w3.org/2000/svg"
   xmlns:sodipodi="http://sodipodi.sourceforge.net/DTD/sodipodi-0.dtd"
   xmlns:inkscape="http://www.inkscape.org/namespaces/inkscape"
   enable-background="new 0 0 792 612"
   version="1.1"
   viewBox="0 0 794 794"
   xml:space="preserve"
   id="svg102"
   sodipodi:docname="somecloudsday.svg"
   inkscape:version="0.92.3 (2405546, 2018-03-11)"
   width="794"
   height="794"><metadata
   id="metadata108"><rdf:RDF><cc:Work
       rdf:about=""><dc:format>image/svg+xml</dc:format><dc:type
         rdf:resource="http://purl.org/dc/dcmitype/StillImage" /><dc:title /></cc:Work></rdf:RDF></metadata><defs
   id="defs106" /><sodipodi:namedview
   pagecolor="#ffffff"
   bordercolor="#666666"
   borderopacity="1"
   objecttolerance="10"
   gridtolerance="10"
   guidetolerance="10"
   inkscape:pageopacity="0"
   inkscape:pageshadow="2"
   inkscape:window-width="1366"
   inkscape:window-height="705"
   id="namedview104"
   showgrid="false"
   inkscape:zoom="0.25623693"
   inkscape:cx="441.55363"
   inkscape:cy="882.58271"
   inkscape:window-x="-8"
   inkscape:window-y="-8"
   inkscape:window-maximized="1"
   inkscape:current-layer="svg102" />
<style
   type="text/css"
   id="style2">
	.st0{fill:url(#t);}
	.st1{opacity:0.59;}
	.st2{fill:#F1F2F2;}
	.st3{fill:url(#u);}
	.st4{opacity:0.68;fill:url(#v);}
	.st5{opacity:0.82;fill:url(#w);}
	.st6{opacity:0.92;fill:url(#x);}
	.st7{opacity:0.79;fill:url(#y);}
	.st8{opacity:0.79;fill:url(#z);}
	.st9{opacity:0.79;fill:url(#aa);}
	.st10{opacity:0.79;fill:url(#ab);}
	.st11{fill:url(#o);}
	.st12{fill:url(#p);}
	.st13{fill:url(#q);}
	.st14{fill:url(#r);}
	.st15{fill:url(#s);}
	.st16{fill:url(#SVGID_15_);}
	.st17{fill:url(#SVGID_16_);}
	.st18{opacity:0.68;fill:url(#SVGID_17_);}
	.st19{opacity:0.82;fill:url(#SVGID_18_);}
	.st20{opacity:0.92;fill:url(#SVGID_19_);}
	.st21{opacity:0.79;fill:url(#SVGID_20_);}
	.st22{opacity:0.79;fill:url(#SVGID_21_);}
	.st23{opacity:0.79;fill:url(#SVGID_22_);}
	.st24{opacity:0.79;fill:url(#SVGID_23_);}
	.st25{fill:url(#SVGID_24_);}
	.st26{fill:url(#SVGID_25_);}
	.st27{fill:url(#SVGID_26_);}
	.st28{fill:url(#SVGID_27_);}
	.st29{fill:url(#SVGID_28_);}
	.st30{fill:url(#SVGID_29_);}
	.st31{fill:url(#SVGID_30_);}
	.st32{opacity:0.68;fill:url(#SVGID_31_);}
	.st33{opacity:0.82;fill:url(#SVGID_32_);}
	.st34{opacity:0.92;fill:url(#SVGID_33_);}
	.st35{opacity:0.79;fill:url(#SVGID_34_);}
	.st36{opacity:0.79;fill:url(#SVGID_35_);}
	.st37{opacity:0.79;fill:url(#SVGID_36_);}
	.st38{opacity:0.79;fill:url(#SVGID_37_);}
	.st39{fill:url(#SVGID_38_);}
	.st40{fill:url(#SVGID_39_);}
	.st41{fill:url(#SVGID_40_);}
	.st42{fill:url(#SVGID_41_);}
	.st43{fill:url(#SVGID_42_);}
	.st44{fill:url(#SVGID_43_);}
	.st45{fill:url(#SVGID_44_);}
	.st46{opacity:0.68;fill:url(#SVGID_45_);}
	.st47{opacity:0.82;fill:url(#SVGID_46_);}
	.st48{opacity:0.92;fill:url(#SVGID_47_);}
	.st49{opacity:0.79;fill:url(#SVGID_48_);}
	.st50{opacity:0.79;fill:url(#SVGID_49_);}
	.st51{opacity:0.79;fill:url(#SVGID_50_);}
	.st52{opacity:0.79;fill:url(#SVGID_51_);}
	.st53{fill:url(#SVGID_52_);}
	.st54{fill:url(#SVGID_53_);}
	.st55{fill:url(#SVGID_54_);}
	.st56{fill:url(#SVGID_55_);}
	.st57{fill:url(#SVGID_56_);}
	.st58{fill:url(#SVGID_57_);}
	.st59{fill:url(#SVGID_58_);}
	.st60{opacity:0.68;fill:url(#SVGID_59_);}
	.st61{opacity:0.82;fill:url(#SVGID_60_);}
	.st62{opacity:0.92;fill:url(#SVGID_61_);}
	.st63{opacity:0.79;fill:url(#SVGID_62_);}
	.st64{opacity:0.79;fill:url(#SVGID_63_);}
	.st65{opacity:0.79;fill:url(#SVGID_64_);}
	.st66{opacity:0.79;fill:url(#SVGID_65_);}
	.st67{fill:url(#SVGID_66_);}
	.st68{fill:url(#SVGID_67_);}
	.st69{fill:url(#SVGID_68_);}
	.st70{fill:url(#SVGID_69_);}
	.st71{fill:url(#SVGID_70_);}
</style>
		<linearGradient
   id="t"
   x1="396"
   x2="396"
   y1="-0.027313"
   y2="455.97"
   gradientUnits="userSpaceOnUse"
   gradientTransform="matrix(1.0023987,0,0,1.3561936,-4.1393728,-4.0393728)">
			<stop
   stop-color="#0088BC"
   offset="0"
   id="stop4" />
			<stop
   stop-color="#D5EEF1"
   offset=".9949"
   id="stop6" />
		</linearGradient>
		
		<radialGradient
   id="u"
   cx="595.71002"
   cy="185.28999"
   r="55.708"
   gradientUnits="userSpaceOnUse"
   gradientTransform="matrix(1.1510297,0,0,1.1247641,-80.260731,105.63187)">
			<stop
   stop-color="#F4F3B0"
   offset=".010256"
   id="stop11" />
			<stop
   stop-color="#F9ED32"
   offset="1"
   id="stop13" />
		</radialGradient>
		
		<linearGradient
   id="v"
   x1="217.2"
   x2="217.2"
   y1="110.88"
   y2="263"
   gradientUnits="userSpaceOnUse"
   gradientTransform="matrix(1.0023987,0,0,1.1247641,0,105.63187)">
			<stop
   stop-color="#fff"
   offset="0"
   id="stop18" />
			<stop
   stop-color="#DBEFF9"
   offset=".9949"
   id="stop20" />
		</linearGradient>
		
		<linearGradient
   id="w"
   x1="663.58002"
   x2="663.58002"
   y1="29.877001"
   y2="105.94"
   gradientUnits="userSpaceOnUse"
   gradientTransform="matrix(1.0023987,0,0,1.1247641,0,105.63187)">
			<stop
   stop-color="#fff"
   offset="0"
   id="stop25" />
			<stop
   stop-color="#DBEFF9"
   offset=".9949"
   id="stop27" />
		</linearGradient>
		
			<linearGradient
   id="x"
   x1="267.39001"
   x2="267.39001"
   y1="55.876999"
   y2="121.97"
   gradientTransform="matrix(-1.1430352,0,0,1.1247641,862.97506,105.63187)"
   gradientUnits="userSpaceOnUse">
			<stop
   stop-color="#fff"
   offset="0"
   id="stop32" />
			<stop
   stop-color="#DBEFF9"
   offset=".9949"
   id="stop34" />
		</linearGradient>
		
		<linearGradient
   id="y"
   x1="248.47"
   x2="248.47"
   y1="327.54001"
   y2="383.57001"
   gradientUnits="userSpaceOnUse"
   gradientTransform="matrix(1.0023987,0,0,1.1247641,0,105.63187)">
			<stop
   stop-color="#fff"
   offset="0"
   id="stop39" />
			<stop
   stop-color="#DBEFF9"
   offset=".9949"
   id="stop41" />
		</linearGradient>
		
		<linearGradient
   id="z"
   x1="77"
   x2="77"
   y1="299.89999"
   y2="355.92999"
   gradientUnits="userSpaceOnUse"
   gradientTransform="matrix(1.0023987,0,0,1.1247641,0,105.63187)">
			<stop
   stop-color="#fff"
   offset="0"
   id="stop46" />
			<stop
   stop-color="#DBEFF9"
   offset=".9949"
   id="stop48" />
		</linearGradient>
		
		<linearGradient
   id="aa"
   x1="598.53003"
   x2="598.53003"
   y1="288.94"
   y2="344.97"
   gradientUnits="userSpaceOnUse"
   gradientTransform="matrix(1.0023987,0,0,1.1247641,0,105.63187)">
			<stop
   stop-color="#fff"
   offset="0"
   id="stop53" />
			<stop
   stop-color="#DBEFF9"
   offset=".9949"
   id="stop55" />
		</linearGradient>
		
		<linearGradient
   id="ab"
   x1="532.94"
   x2="532.94"
   y1="293.29999"
   y2="369.35999"
   gradientUnits="userSpaceOnUse"
   gradientTransform="matrix(1.0023987,0,0,1.1247641,0,105.63187)">
			<stop
   stop-color="#fff"
   offset="0"
   id="stop60" />
			<stop
   stop-color="#DBEFF9"
   offset=".9949"
   id="stop62" />
		</linearGradient>
		
			<linearGradient
   id="o"
   x1="399.85999"
   x2="399.85999"
   y1="287.97"
   y2="488.35001"
   gradientTransform="matrix(-1.0023987,0,0,1.1247641,797.76903,105.63187)"
   gradientUnits="userSpaceOnUse">
			<stop
   stop-color="#ADD1EF"
   offset="0"
   id="stop67" />
			<stop
   stop-color="#4DB3E6"
   offset=".9949"
   id="stop69" />
		</linearGradient>
		
		<linearGradient
   id="p"
   x1="396"
   x2="396"
   y1="326.97"
   y2="466.95999"
   gradientUnits="userSpaceOnUse"
   gradientTransform="matrix(1.0023987,0,0,1.1247641,0,105.63187)">
			<stop
   stop-color="#BACFEB"
   offset="0"
   id="stop74" />
			<stop
   stop-color="#5783C3"
   offset="1"
   id="stop76" />
		</linearGradient>
		
		<linearGradient
   id="q"
   x1="396"
   x2="396"
   y1="392.82999"
   y2="555.34998"
   gradientUnits="userSpaceOnUse"
   gradientTransform="matrix(1.0023987,0,0,1.1247641,0,105.63187)">
			<stop
   stop-color="#88C03F"
   offset="0"
   id="stop81" />
			<stop
   stop-color="#5C892A"
   offset=".9667"
   id="stop83" />
		</linearGradient>
		
		<linearGradient
   id="r"
   x1="396.26001"
   x2="396.26001"
   y1="445.85999"
   y2="578.58002"
   gradientUnits="userSpaceOnUse"
   gradientTransform="matrix(1.0023987,0,0,1.1247641,0,105.63187)">
			<stop
   stop-color="#88C03F"
   offset="0"
   id="stop88" />
			<stop
   stop-color="#48701F"
   offset=".9974"
   id="stop90" />
		</linearGradient>
		
		<linearGradient
   id="s"
   x1="396.5"
   x2="396.5"
   y1="500.67999"
   y2="612.03003"
   gradientUnits="userSpaceOnUse"
   gradientTransform="matrix(1.0023987,0,0,1.1247641,0,105.63187)">
			<stop
   stop-color="#8DC63F"
   offset="0"
   id="stop95" />
			<stop
   stop-color="#61823E"
   offset=".9693"
   id="stop97" />
		</linearGradient>
		<rect
   class="st0"
   width="793.89978"
   height="618.42432"
   id="rect9"
   style="fill:url(#t);stroke-width:1.16595316"
   x="-4.1393728"
   y="-4.0393667" /><ellipse
   style="fill:url(#u);stroke-width:1.13782108"
   class="st3"
   cx="605.40765"
   cy="314.05066"
   id="circle16"
   rx="64.11235"
   ry="62.649361" /><path
   inkscape:connector-curvature="0"
   style="opacity:0.68000034;fill:url(#v);stroke-width:1.06182015"
   class="st4"
   d="m 77.1847,390.19719 c -16.740058,-4.38658 -27.465724,-22.83271 -24.258049,-41.39132 3.207676,-19.00851 20.047974,-31.9433 37.289232,-28.34405 -1.002399,-12.25993 6.415352,-23.3951 17.040777,-25.86958 10.52519,-2.47448 21.15061,4.27411 24.65901,15.7467 -0.60144,-3.37429 -3.30792,-20.47071 6.41535,-37.11721 9.42255,-16.30908 23.95733,-20.58319 27.06477,-21.37052 1.90455,-11.58507 10.22446,-20.35823 20.04797,-21.37052 11.22686,-1.23724 22.15301,7.87335 24.45853,21.37052 16.3391,-6.63611 34.38227,-1.01229 44.70698,13.49717 8.72087,12.3724 10.52519,29.35634 5.01199,44.42818 6.71607,-12.37241 19.54678,-18.89604 32.07676,-16.30908 12.93094,2.69943 23.15541,14.50946 25.05997,29.24387 0.60144,-0.33743 14.03358,-8.54821 27.06476,0 9.22207,6.07372 14.43455,18.1087 13.03119,30.36863 4.91175,-7.53592 13.23166,-10.0104 19.04557,-6.74859 5.91415,3.37429 8.42015,13.8346 6.61583,21.14557 -7.21727,28.34405 -83.80053,31.71835 -83.80053,31.71835 0,0 -48.51609,2.58695 -99.23747,2.24952 -47.91466,-0.33743 -71.87199,-3.14934 -82.19669,-4.49905 -16.53958,-2.13705 -30.372683,-4.72401 -40.09595,-6.74859 z"
   id="path23" /><path
   inkscape:connector-curvature="0"
   style="opacity:0.81999966;fill:url(#w);stroke-width:1.06182015"
   class="st5"
   d="m 573.57254,219.12057 c -10.92615,-2.13705 -17.8427,-11.47259 -15.8379,-20.69566 2.10503,-9.56049 13.03118,-15.97165 24.35829,-14.17202 -0.60144,-6.07373 4.21007,-11.69755 11.12662,-12.93479 6.81631,-1.23724 13.8331,2.13705 16.13862,7.87335 -0.40096,-1.68715 -2.10504,-10.23536 4.10983,-18.55861 6.11464,-8.0983 15.63742,-10.23535 17.64222,-10.68526 1.20288,-5.84877 6.71607,-10.12288 13.03118,-10.68526 7.31752,-0.56238 14.43455,3.93668 15.93814,10.68526 10.62543,-3.26182 22.45373,-0.56238 29.16981,6.74858 5.71367,6.18621 6.91655,14.73441 3.30791,22.15786 4.31032,-6.1862 12.73047,-9.44802 20.95013,-8.0983 8.42015,1.34971 15.03599,7.19849 16.3391,14.62193 0.40096,-0.22495 9.12183,-4.2741 17.64222,0 6.01439,3.03686 9.42255,8.99811 8.52039,15.18431 3.20768,-3.82419 8.62063,-5.06143 12.42974,-3.37429 3.90936,1.68715 5.5132,6.86106 4.31032,10.57278 -4.71128,14.17203 -54.63073,15.85918 -54.63073,15.85918 0,0 -31.6758,1.34972 -64.75496,1.12476 -31.27484,-0.22495 -46.91226,-1.57467 -53.62833,-2.24953 -10.8259,-1.01228 -19.84749,-2.362 -26.1626,-3.37429 z"
   id="path30" /><path
   inkscape:connector-curvature="0"
   style="opacity:0.92000002;fill:url(#x);stroke-width:1.06182015"
   class="st6"
   d="m 620.08384,237.90413 c 7.41775,-1.9121 12.22926,-9.89792 10.8259,-17.99622 -1.40336,-8.32326 -8.92135,-13.8346 -16.63982,-12.25993 0.40096,-5.28639 -2.90695,-10.12288 -7.61823,-11.24764 -4.71127,-1.01229 -9.42254,1.9121 -11.02638,6.86106 0.30072,-1.46219 1.5036,-8.88564 -2.80672,-16.08413 -4.21007,-7.08601 -10.72566,-8.88563 -12.02878,-9.33554 -0.80192,-5.06144 -4.61104,-8.77316 -8.92135,-9.33554 -5.012,-0.56238 -9.92375,3.48677 -10.92615,9.33554 -7.31751,-2.92439 -15.3367,-0.44991 -19.94773,5.84877 -3.90936,5.39887 -4.71128,12.82231 -2.20528,19.34595 -3.00719,-5.39887 -8.72087,-8.21078 -14.3343,-7.08602 -5.81391,1.12477 -10.32471,6.29868 -11.22687,12.70984 -0.30072,-0.11248 -6.21487,-3.71172 -12.02878,0 -4.10983,2.58695 -6.41535,7.87334 -5.81391,13.15974 -2.20528,-3.26182 -5.91415,-4.38658 -8.52039,-2.92439 -2.60624,1.46219 -3.80912,5.96125 -2.90696,9.22306 3.20768,12.25993 37.38947,13.72213 37.38947,13.72213 0,0 21.65182,1.12476 44.30603,1.01228 21.35109,-0.11247 32.07675,-1.34971 36.68779,-1.91209 7.21727,-1.01229 13.3319,-2.13706 17.74246,-3.03687 z"
   id="path37" /><path
   inkscape:connector-curvature="0"
   style="opacity:0.79000005;fill:url(#y);stroke-width:1.06182015"
   class="st7"
   d="m 183.94016,532.92976 c -7.71847,-1.57467 -12.73046,-8.43573 -11.22686,-15.2968 1.50359,-6.97353 9.3223,-11.81002 17.34149,-10.4603 -0.5012,-4.49906 3.0072,-8.66068 7.91895,-9.5605 4.91176,-0.89981 9.82351,1.57467 11.42735,5.84878 -0.30072,-1.23724 -1.5036,-7.53592 2.90695,-13.72212 4.41056,-5.96125 11.12663,-7.53592 12.52999,-7.87335 0.90216,-4.27411 4.71127,-7.53592 9.32231,-7.87335 5.21247,-0.44991 10.22446,2.92438 11.3271,7.87335 7.61823,-2.47448 15.93814,-0.33743 20.74965,4.94896 4.0096,4.49905 4.91176,10.79773 2.30552,16.30908 3.10744,-4.61153 9.02159,-6.97354 14.8355,-5.96125 6.01439,1.01229 10.72567,5.28639 11.62783,10.79773 0.30072,-0.11247 6.51559,-3.14934 12.52998,0 4.31032,2.24953 6.71607,6.63611 6.01439,11.13517 2.30552,-2.81191 6.11464,-3.71172 8.82111,-2.47448 2.70648,1.23724 3.90936,5.06144 3.0072,7.76087 -3.30792,10.46031 -38.79283,11.69755 -38.79283,11.69755 0,0 -22.55397,1.01228 -46.0101,0.78733 -22.25325,-0.11248 -33.37988,-1.12476 -38.09115,-1.68715 -7.61823,-0.56238 -14.03358,-1.57466 -18.54438,-2.24952 z"
   id="path44" /><path
   inkscape:connector-curvature="0"
   style="opacity:0.79000005;fill:url(#z);stroke-width:1.06182015"
   class="st8"
   d="M 12.028784,501.77379 C 4.3103144,500.19912 -0.70167909,493.33806 0.80191896,486.477 2.305517,479.50346 10.124227,474.66698 18.143416,476.01669 c -0.501199,-4.49905 3.007197,-8.66068 7.91895,-9.56049 4.911754,-0.89981 9.823507,1.57467 11.427345,5.84877 -0.300719,-1.23724 -1.503598,-7.53592 2.906957,-13.72212 4.410554,-5.96125 11.126625,-7.53592 12.529983,-7.87335 0.902159,-4.2741 4.711274,-7.53592 9.322308,-7.87335 5.212474,-0.4499 10.224467,2.92439 11.327106,7.87335 7.61823,-2.47448 15.938139,-0.33743 20.749653,4.94896 4.009594,4.49906 4.911753,10.79774 2.305517,16.30908 3.107436,-4.61153 9.021585,-6.97354 14.835505,-5.96125 6.01439,1.01229 10.72566,5.28639 11.62782,10.79774 0.30072,-0.11248 6.51559,-3.14934 12.52998,0 4.31032,2.24953 6.71608,6.63611 6.0144,11.13516 2.30551,-2.81191 6.11463,-3.71172 8.8211,-2.47448 2.70648,1.23724 3.90936,5.06144 3.0072,7.76087 -3.30791,10.46031 -38.79283,11.69755 -38.79283,11.69755 0,0 -22.553969,1.01229 -46.010099,0.78734 -22.253251,-0.11248 -33.379877,-1.12477 -38.091151,-1.68715 -7.61823,-0.56238 -14.033581,-1.46219 -18.544376,-2.24953 z"
   id="path51" /><path
   inkscape:connector-curvature="0"
   style="opacity:0.79000005;fill:url(#aa);stroke-width:1.06182015"
   class="st9"
   d="m 534.77971,489.51386 c -7.71847,-1.57467 -12.73047,-8.43573 -11.22687,-15.29679 1.5036,-6.97354 9.32231,-11.81002 17.3415,-10.46031 -0.5012,-4.49905 3.00719,-8.66068 7.91895,-9.56049 4.91175,-0.89981 9.82351,1.57467 11.42734,5.84877 -0.30072,-1.23724 -1.50359,-7.53592 2.90696,-13.72212 4.41055,-5.96125 11.12663,-7.53592 12.52998,-7.87335 0.90216,-4.2741 4.71128,-7.53592 9.32231,-7.87335 5.21247,-0.4499 10.22447,2.92439 11.32711,7.87335 7.61823,-2.47448 15.93814,-0.33743 20.74965,4.94896 4.00959,4.49906 4.91175,10.79774 2.30552,16.30908 3.10743,-4.61153 9.02159,-6.97353 14.8355,-5.96125 6.01439,1.01229 10.72566,5.2864 11.62782,10.79774 0.30072,-0.11248 6.51559,-3.14934 12.52999,0 4.31031,2.24953 6.71607,6.63611 6.01439,11.13516 2.30552,-2.81191 6.11463,-3.71172 8.82111,-2.47448 2.70647,1.23724 3.90935,5.06144 3.00719,7.76088 -3.30791,10.4603 -38.79283,11.69754 -38.79283,11.69754 0,0 -22.55397,1.01229 -46.0101,0.78734 -22.25325,-0.11248 -33.37987,-1.12477 -38.09115,-1.68715 -7.61823,-0.56238 -13.93334,-1.57467 -18.54437,-2.24953 z"
   id="path58" /><path
   inkscape:connector-curvature="0"
   style="opacity:0.79000005;fill:url(#ab);stroke-width:1.06182015"
   class="st10"
   d="m 438.04823,515.38344 c -11.42734,-2.13706 -18.74485,-11.4726 -16.63982,-20.69566 2.20528,-9.5605 13.73287,-15.97165 25.56117,-14.17203 -0.70168,-6.07373 4.41055,-11.69755 11.62783,-12.93479 7.21727,-1.23724 14.43454,2.13705 16.94053,7.87335 -0.40096,-1.68715 -2.20527,-10.23535 4.41056,-18.55861 6.41535,-8.0983 16.43934,-10.23535 18.54437,-10.68526 1.30312,-5.84877 7.01679,-10.12287 13.73287,-10.68525 7.71847,-0.56239 15.13622,3.93667 16.74005,10.68525 11.22687,-3.26181 23.55637,-0.56238 30.57316,6.74859 5.91416,6.1862 7.21727,14.73441 3.40816,22.27033 4.61103,-6.1862 13.3319,-9.44802 21.95253,-8.0983 8.92135,1.34971 15.8379,7.19849 17.14102,14.62193 0.40096,-0.22495 9.62303,-4.2741 18.54438,0 6.31511,3.03686 9.8235,8.99811 8.92134,15.18432 3.40816,-3.8242 9.12183,-5.06144 13.03119,-3.3743 4.10983,1.68715 5.81391,6.86106 4.51079,10.57279 -4.91175,14.17202 -57.23696,15.85917 -57.3372,15.85917 0,0 -33.1794,1.34972 -67.8624,1.12476 -32.77843,-0.22495 -49.21777,-1.57467 -56.23456,-2.24952 -11.42735,-1.12477 -20.8499,-2.47449 -27.56597,-3.48677 z"
   id="path65" /><path
   inkscape:connector-curvature="0"
   style="fill:url(#o);stroke-width:1.06182015"
   class="st11"
   d="m 793.89977,532.59233 c -3.60863,-4.83649 -7.21727,-9.5605 -10.72567,-14.39698 0.10024,1.12476 1.0024,13.72212 -5.11223,22.60776 -5.51319,7.98582 -12.42974,6.6361 -13.43214,6.41115 -2.10504,0.22495 -14.73526,1.46219 -23.75685,-12.93479 -3.5084,-5.62382 -5.31271,-11.81002 -6.21487,-16.08412 l -16.53958,14.50945 c -14.43454,-21.14556 -33.58036,-45.32799 -57.73817,-67.7108 -16.63981,-15.29679 -32.37747,-26.76938 -46.41106,-35.43006 -5.01199,14.2845 -18.54437,47.68999 -45.30842,70.86013 -25.46092,22.04538 -49.31801,23.05767 -59.74296,22.60776 -3.10744,-1.23724 -9.12183,-4.38658 -14.43454,-12.93478 -2.506,-3.93668 -4.10984,-7.98583 -5.11223,-11.24765 -8.42015,14.50946 -22.15302,34.86769 -42.30123,51.5142 -24.05757,20.0208 -76.08206,30.48111 -82.49741,22.60776 -8.62063,-10.79774 -8.31991,-27.21929 -8.21967,-29.01892 -8.21967,11.24765 -16.53958,22.60776 -24.75925,33.8554 -11.72806,-14.73441 -27.46572,-31.71834 -47.41346,-46.67771 -18.04318,-13.60964 -34.78323,-22.04537 -48.41586,-27.33176 -11.8283,14.05955 -48.21537,54.77601 -91.71948,62.87431 -19.74725,3.71172 -42.20098,11.81002 -52.525689,-8.0983 -8.119429,-15.40927 -5.011993,-39.25427 -3.107436,-49.93953 -15.938139,13.04727 -33.079157,29.35635 -50.520894,49.93953 -5.412953,6.41115 -10.625426,12.93479 -15.43694,19.34594 -5.914152,-2.02457 -22.05277152,-14.2845 -22.05277152,-14.2845 L 0,654.85419 c 0,0 526.86076,-3.14934 793.89977,-4.72401"
   id="path72" /><path
   inkscape:connector-curvature="0"
   style="fill:url(#p);stroke-width:1.06182015"
   class="st12"
   d="m 0,546.87683 c 4.0095948,-3.8242 8.0191896,-7.76087 12.129024,-11.58507 -0.10024,0.78734 -1.002398,9.5605 5.011994,15.7467 5.412953,5.51134 12.129024,4.61153 13.031183,4.49905 2.105037,0.22496 14.334301,1.01229 23.05517,-8.99811 3.408156,-3.93667 5.112233,-8.21078 6.014392,-11.24764 5.312713,3.37429 10.725666,6.74859 16.038379,10.12288 14.033582,-14.84689 32.678198,-31.71835 56.134328,-47.24009 16.13862,-10.68526 31.47532,-18.67109 45.10794,-24.74481 4.91175,10.0104 18.04318,33.29301 44.10554,49.48962 24.75925,15.40926 47.91466,16.08412 58.13913,15.74669 3.00719,-0.89981 8.92135,-3.03686 14.03358,-8.99811 2.40576,-2.81191 4.0096,-5.62382 5.01199,-7.87335 8.11943,10.12288 21.55158,24.29491 41.09835,35.99245 23.35589,13.94708 73.97702,21.37052 80.1919,15.7467 8.31991,-7.53592 8.01919,-19.00851 8.01919,-20.24575 l 24.05756,23.62004 C 462.607,566.67268 477.9437,554.75018 497.29,544.28987 c 17.54197,-9.56049 33.78083,-15.40926 47.11273,-19.12099 11.52759,9.78545 46.91226,38.24198 89.21349,43.8658 19.24605,2.58696 40.99811,8.32326 51.12233,-5.62382 7.81871,-10.79773 4.81152,-27.33176 3.0072,-34.86768 15.53718,9.11059 32.177,20.4707 49.11753,34.86768 5.31272,4.49906 10.32471,8.99812 15.03598,13.49717 5.81392,-1.46219 13.53239,-4.16162 21.45134,-10.0104 8.42015,-6.1862 20.54917,-11.47259 20.64941,-11.69754 v 75.69662 L 0,627.52242"
   id="path79" /><path
   inkscape:connector-curvature="0"
   style="fill:url(#q);stroke-width:1.06182015"
   class="st13"
   d="M 0.50119935,575.67079 C 19.747254,565.99782 43.905063,556.5498 72.172706,551.37589 152.8658,536.529 207.99773,567.12259 297.71241,591.52997 c 42.40147,11.47259 100.44035,17.77127 216.51812,30.36863 123.29504,13.38469 279.66924,23.17014 279.66924,23.17014 v 43.19094 c 0,0 -781.169307,38.46693 -793.89977,42.06618 z"
   id="path86" /><path
   inkscape:connector-curvature="0"
   style="fill:url(#r);stroke-width:1.06182015"
   class="st14"
   d="M 0.50119935,615.03754 C 70.568868,638.54511 192.15983,675.32489 335.30237,642.14435 c 15.13622,-3.48677 9.92374,-2.92439 37.08875,-10.12288 131.81543,-35.09264 421.50865,-22.83271 421.50865,-22.83271 0,0 0,108.53974 0,107.7524 0,-0.78733 -538.58882,116.86299 -792.1956922,-50.16448 C 0.10023987,629.43452 1.5035981,663.17744 0.70167909,621.8986 0.60143922,619.76155 0.60143922,617.51202 0.50119935,615.03754 Z"
   id="path93" /><path
   inkscape:connector-curvature="0"
   style="fill:url(#s);stroke-width:1.06182015"
   class="st15"
   d="M 793.89977,668.80126 C 677.02008,684.54796 545.20465,695.23322 400.759,695.34569 253.70711,695.45817 119.58616,684.77291 1.0023987,668.80126 V 794.09998 H 793.89977 Z"
   id="path100" />
<path
   style="fill:none;stroke:#ffffff;stroke-width:2.0999999;stroke-linecap:butt;stroke-linejoin:miter;stroke-miterlimit:4;stroke-dasharray:none;stroke-opacity:1"
   d="m 228.97596,402.75152 c -13.65924,42.92902 -13.65924,42.92902 -13.65924,42.92902"
   id="path873-8"
   inkscape:connector-curvature="0" /><path
   style="fill:none;stroke:#ffffff;stroke-width:2.0999999;stroke-linecap:butt;stroke-linejoin:miter;stroke-miterlimit:4;stroke-dasharray:none;stroke-opacity:1"
   d="m 167.57526,456.56336 c -13.65924,42.92902 -13.65924,42.92902 -13.65924,42.92902"
   id="path873-0"
   inkscape:connector-curvature="0" /><path
   style="fill:none;stroke:#ffffff;stroke-width:2.0999999;stroke-linecap:butt;stroke-linejoin:miter;stroke-miterlimit:4;stroke-dasharray:none;stroke-opacity:1"
   d="M 173.78432,409.65048 C 160.12508,452.5795 160.12508,452.5795 160.12508,452.5795"
   id="path873-1"
   inkscape:connector-curvature="0" /><path
   style="fill:none;stroke:#ffffff;stroke-width:2.0999999;stroke-linecap:butt;stroke-linejoin:miter;stroke-miterlimit:4;stroke-dasharray:none;stroke-opacity:1"
   d="m 146.18851,399.30204 c -13.65924,42.92902 -13.65924,42.92902 -13.65924,42.92902"
   id="path873-09"
   inkscape:connector-curvature="0" /><path
   style="fill:none;stroke:#ffffff;stroke-width:2.0999999;stroke-linecap:butt;stroke-linejoin:miter;stroke-miterlimit:4;stroke-dasharray:none;stroke-opacity:1"
   d="m 121.90349,395.69706 c -13.65924,42.92902 -13.65924,42.92902 -13.65924,42.92902"
   id="path873-9"
   inkscape:connector-curvature="0" /><path
   style="fill:none;stroke:#ffffff;stroke-width:2.0999999;stroke-linecap:butt;stroke-linejoin:miter;stroke-miterlimit:4;stroke-dasharray:none;stroke-opacity:1"
   d="m 202.75993,401.37173 c -13.65924,42.92902 -13.65924,42.92902 -13.65924,42.92902"
   id="path873-3"
   inkscape:connector-curvature="0" /><path
   style="fill:none;stroke:#ffffff;stroke-width:2.0999999;stroke-linecap:butt;stroke-linejoin:miter;stroke-miterlimit:4;stroke-dasharray:none;stroke-opacity:1"
   d="m 193.1014,452.42399 c -13.65924,42.92902 -13.65924,42.92902 -13.65924,42.92902"
   id="path873-7"
   inkscape:connector-curvature="0" /><path
   style="fill:none;stroke:#ffffff;stroke-width:2.0999999;stroke-linecap:butt;stroke-linejoin:miter;stroke-miterlimit:4;stroke-dasharray:none;stroke-opacity:1"
   d="m 144.80872,444.83515 c -13.65924,42.92902 -13.65924,42.92902 -13.65924,42.92902"
   id="path873-45"
   inkscape:connector-curvature="0" /><path
   style="fill:none;stroke:#ffffff;stroke-width:2.0999999;stroke-linecap:butt;stroke-linejoin:miter;stroke-miterlimit:4;stroke-dasharray:none;stroke-opacity:1"
   d="m 116.523,446.90483 c -13.65924,42.92902 -13.65924,42.92902 -13.65924,42.92902"
   id="path873-16"
   inkscape:connector-curvature="0" /><path
   style="fill:none;stroke:#ffffff;stroke-width:2.0999999;stroke-linecap:butt;stroke-linejoin:miter;stroke-miterlimit:4;stroke-dasharray:none;stroke-opacity:1"
   d="m 206.89931,471.74107 c -13.65924,42.92902 -13.65924,42.92902 -13.65924,42.92902"
   id="path873-44"
   inkscape:connector-curvature="0" /><path
   style="fill:none;stroke:#ffffff;stroke-width:2.0999999;stroke-linecap:butt;stroke-linejoin:miter;stroke-miterlimit:4;stroke-dasharray:none;stroke-opacity:1"
   d="m 298.6554,401.37173 c -13.65924,42.92902 -13.65924,42.92902 -13.65924,42.92902"
   id="path873-99"
   inkscape:connector-curvature="0" /><path
   style="fill:none;stroke:#ffffff;stroke-width:2.0999999;stroke-linecap:butt;stroke-linejoin:miter;stroke-miterlimit:4;stroke-dasharray:none;stroke-opacity:1"
   d="m 269.40801,403.78287 c -13.65924,42.92902 -13.65924,42.92902 -13.65924,42.92902"
   id="path873-46"
   inkscape:connector-curvature="0" /><path
   style="fill:none;stroke:#ffffff;stroke-width:2.0999999;stroke-linecap:butt;stroke-linejoin:miter;stroke-miterlimit:4;stroke-dasharray:none;stroke-opacity:1"
   d="m 238.49727,438.93645 c -13.65924,42.92902 -13.65924,42.92902 -13.65924,42.92902"
   id="path873-83"
   inkscape:connector-curvature="0" /><path
   style="fill:none;stroke:#ffffff;stroke-width:2.0999999;stroke-linecap:butt;stroke-linejoin:miter;stroke-miterlimit:4;stroke-dasharray:none;stroke-opacity:1"
   d="m 282.20185,460.19449 c -13.65924,42.92902 -13.65924,42.92902 -13.65924,42.92902"
   id="path873-18"
   inkscape:connector-curvature="0" /></svg>