<?xml version="1.0" encoding="UTF-8" standalone="no"?>
<!-- Generator: Adobe Illustrator 19.0.0, SVG Export Plug-In . SVG Version: 6.00 Build 0)  -->

<svg
   xmlns:dc="http://purl.org/dc/elements/1.1/"
   xmlns:cc="http://creativecommons.org/ns#"
   xmlns:rdf="http://www.w3.org/1999/02/22-rdf-syntax-ns#"
   xmlns:svg="http://www.w3.org/2000/svg"
   xmlns="http://www.w3.org/2000/svg"
   xmlns:sodipodi="http://sodipodi.sourceforge.net/DTD/sodipodi-0.dtd"
   xmlns:inkscape="http://www.inkscape.org/namespaces/inkscape"
   version="1.1"
   id="Layer_1"
   x="0px"
   y="0px"
   viewBox="0 0 520 320"
   xml:space="preserve"
   sodipodi:docname="sunset.svg"
   inkscape:version="0.92.3 (2405546, 2018-03-11)"
   width="520"
   height="320"><metadata
   id="metadata79"><rdf:RDF><cc:Work
       rdf:about=""><dc:format>image/svg+xml</dc:format><dc:type
         rdf:resource="http://purl.org/dc/dcmitype/StillImage" /><dc:title></dc:title></cc:Work></rdf:RDF></metadata><defs
   id="defs77" /><sodipodi:namedview
   pagecolor="#ffffff"
   bordercolor="#666666"
   borderopacity="1"
   objecttolerance="10"
   gridtolerance="10"
   guidetolerance="10"
   inkscape:pageopacity="0"
   inkscape:pageshadow="2"
   inkscape:window-width="1366"
   inkscape:window-height="705"
   id="namedview75"
   showgrid="false"
   inkscape:zoom="0.65186406"
   inkscape:cx="20.020656"
   inkscape:cy="144.08977"
   inkscape:window-x="-8"
   inkscape:window-y="-8"
   inkscape:window-maximized="1"
   inkscape:current-layer="Layer_1" />
<g
   id="g6"
   transform="translate(5,-46.672)">
	<g
   id="g4">
		<path
   d="M 501.344,325.328 H 380.188 c 2.625,-10.219 4.031,-20.938 4.031,-32 0,-70.805 -57.406,-128.211 -128.219,-128.211 -70.813,0 -128.219,57.406 -128.219,128.211 0,11.062 1.406,21.781 4.039,32 H 10.664 C 4.773,325.328 0,330.109 0,336 c 0,5.891 4.773,10.672 10.664,10.672 h 490.68 c 5.875,0 10.656,-4.781 10.656,-10.672 0,-5.891 -4.781,-10.672 -10.656,-10.672 z m -143.314,0 H 153.977 c -3.196,-10.219 -4.868,-20.969 -4.868,-32 0,-28.531 11.125,-55.383 31.312,-75.57 20.187,-20.187 47.031,-31.312 75.578,-31.312 28.547,0 55.391,11.125 75.578,31.312 20.187,20.187 31.312,47.039 31.312,75.57 0,11.031 -1.672,21.781 -4.859,32 z"
   id="path2"
   inkscape:connector-curvature="0" />
	</g>
</g>
<g
   id="g12"
   transform="translate(5,-46.672)">
	<g
   id="g10">
		<path
   d="M 96,282.672 H 32 c -5.891,0 -10.664,4.781 -10.664,10.656 0,5.906 4.773,10.688 10.664,10.688 h 64 c 5.891,0 10.664,-4.781 10.664,-10.688 0,-5.875 -4.773,-10.656 -10.664,-10.656 z"
   id="path8"
   inkscape:connector-curvature="0" />
	</g>
</g>
<g
   id="g18"
   transform="translate(5,-46.672)">
	<g
   id="g16">
		<path
   d="M 480,282.672 H 479.969 416 c -5.891,0 -10.656,4.781 -10.656,10.656 0,5.906 4.766,10.672 10.656,10.688 L 416.016,304 480,304.016 V 304 c 5.891,0.016 10.656,-4.766 10.656,-10.672 0,-5.875 -4.766,-10.656 -10.656,-10.656 z"
   id="path14"
   inkscape:connector-curvature="0" />
	</g>
</g>
<g
   id="g24"
   transform="translate(5,-46.672)">
	<g
   id="g22">
		<path
   d="m 421.938,127.406 c -4.172,-4.172 -10.922,-4.172 -15.094,0 l -0.016,0.016 -45.234,45.234 c -4.156,4.164 -4.156,10.922 0,15.086 4.156,4.164 10.922,4.164 15.094,0 0,0 0,0 0,-0.008 l 45.25,-45.25 c 4.156,-4.164 4.156,-10.914 0,-15.078 z"
   id="path20"
   inkscape:connector-curvature="0" />
	</g>
</g>
<g
   id="g30"
   transform="translate(5,-46.672)">
	<g
   id="g28">
		<path
   d="m 256,58.672 c -5.891,0 -10.672,4.773 -10.664,10.664 0,0.008 0,0.016 0,0.031 v 63.969 c 0,5.891 4.773,10.664 10.664,10.664 5.891,0.008 10.664,-4.773 10.664,-10.664 v -64 c 0,-5.891 -4.773,-10.664 -10.664,-10.664 z"
   id="path26"
   inkscape:connector-curvature="0" />
	</g>
</g>
<g
   id="g36"
   transform="translate(5,-46.672)">
	<g
   id="g34">
		<path
   d="m 150.406,172.656 c -0.008,0 -0.008,-0.008 -0.008,-0.008 l -45.25,-45.242 c -4.164,-4.172 -10.914,-4.172 -15.086,0 -4.164,4.164 -4.164,10.922 0,15.086 0.008,0 0.016,0.008 0.024,0.016 l 45.234,45.234 c 4.164,4.164 10.922,4.164 15.086,0 4.164,-4.164 4.164,-10.914 0,-15.086 z"
   id="path32"
   inkscape:connector-curvature="0" />
	</g>
</g>
<g
   id="g42"
   transform="matrix(-1.2632376,0,0,-1.4854172,585.62686,820.07006)">
	<g
   id="g40">
		<path
   d="m 286.172,393.75 -0.016,-0.016 -22.609,-22.609 h -0.008 C 261.609,369.203 258.945,368 256,368 c -2.945,0 -5.609,1.203 -7.539,3.125 l -22.633,22.625 c -4.164,4.172 -4.164,10.922 0,15.078 4.164,4.172 10.922,4.172 15.086,0 h 0.008 l 4.414,-4.406 v 38.25 c 0,5.891 4.773,10.656 10.664,10.656 5.891,0 10.664,-4.766 10.664,-10.656 0,0 0,-0.016 0,-0.031 v -38.219 l 4.422,4.406 c 4.164,4.188 10.914,4.188 15.086,0 4.172,-4.156 4.172,-10.906 0,-15.078 z"
   id="path38"
   inkscape:connector-curvature="0" />
	</g>
</g>
<g
   id="g44"
   transform="translate(0,-192)">
</g>
<g
   id="g46"
   transform="translate(0,-192)">
</g>
<g
   id="g48"
   transform="translate(0,-192)">
</g>
<g
   id="g50"
   transform="translate(0,-192)">
</g>
<g
   id="g52"
   transform="translate(0,-192)">
</g>
<g
   id="g54"
   transform="translate(0,-192)">
</g>
<g
   id="g56"
   transform="translate(0,-192)">
</g>
<g
   id="g58"
   transform="translate(0,-192)">
</g>
<g
   id="g60"
   transform="translate(0,-192)">
</g>
<g
   id="g62"
   transform="translate(0,-192)">
</g>
<g
   id="g64"
   transform="translate(0,-192)">
</g>
<g
   id="g66"
   transform="translate(0,-192)">
</g>
<g
   id="g68"
   transform="translate(0,-192)">
</g>
<g
   id="g70"
   transform="translate(0,-192)">
</g>
<g
   id="g72"
   transform="translate(0,-192)">
</g>
</svg>